<svg id="Layer_1" xmlns="http://www.w3.org/2000/svg" viewBox="0 0 200.5 109"><style>.st0{fill:#132b47}.st1{fill:#0b1726}.st3{display:inline}.st4{fill:#6eff9e}.st5{fill:#ff8e79}.st6{fill:#15d3ff}.st7{fill:#c617ff}.st9{fill:#1a4bff}.st10{fill:#ff4a69}</style><path class="st0" d="M1 0h199.5v109H1z"/><path class="st0" d="M0 0h12.5v109H0z"/><path class="st1" d="M12.5 1H51v107.5H12.5z"/><path class="st1" d="M0 0h200v9H0z"/><path d="M196.5 6c-.8 0-1.5-.7-1.5-1.5s.7-1.5 1.5-1.5 1.5.7 1.5 1.5-.7 1.5-1.5 1.5z" fill="#a0384f"/><path class="st0" d="M192.3 6c-.8 0-1.5-.7-1.5-1.5s.7-1.5 1.5-1.5 1.5.7 1.5 1.5-.7 1.5-1.5 1.5zM188.1 6c-.8 0-1.5-.7-1.5-1.5s.7-1.5 1.5-1.5 1.5.7 1.5 1.5-.7 1.5-1.5 1.5zM15 12h34v3H15zM15 17h30v3H15zM15 22h25v3H15zM15 27h20v3H15zM15 32h34v3H15zM15 37h34v3H15zM15 42h30v3H15zM15 47h20v3H15zM15 52h33v3H15z"/></svg>