<svg data-name="Layer 1" xmlns="http://www.w3.org/2000/svg" viewBox="0 0 77 99"><path fill="#fff" d="M49.56 22v3.54h23.9v69.92H3.54V25.54h23.9V22H0v77h77V22H49.56z"/><path fill="#fff" d="M36.5 36V19h4v17zM38.5 0L26.38 19h24.24L38.5 0z"/><path d="M38.84 82.1q1.38-19 2.57-38A211.31 211.31 0 0 0 9.5 39.47q-2.43 19.19-3.59 38.4a173.35 173.35 0 0 1 32.44 4.32z" fill="#a3a2a2"/><path d="M38.5 82.21a173.37 173.37 0 0 1 32.56-4.34q-1.13-19.2-3.56-38.4a211.32 211.32 0 0 0-31.91 4.66q1.19 19 2.57 38z" fill="#a3a2a2"/><path d="M37.36 79.94A151.36 151.36 0 0 0 8.5 75.46q1.08-18.4 3.47-36.81a189.31 189.31 0 0 1 24.54 2.88q.89 19.22.85 38.41z" fill="#fff"/><path d="M39.64 79.94a151.36 151.36 0 0 1 28.86-4.48q-1.08-18.4-3.47-36.81a189.31 189.31 0 0 0-24.54 2.88q-.89 19.22-.85 38.41z" fill="#fcfcfc"/></svg>